<svg xmlns="http://www.w3.org/2000/svg" viewBox="0 0 600 700" width="600" height="700">
  <defs>
    <linearGradient id="g3b" x1="0%" y1="0%" x2="100%" y2="100%">
      <stop offset="0%" style="stop-color:#FF6B35"/>
      <stop offset="100%" style="stop-color:#FFD166"/>
    </linearGradient>
    <linearGradient id="p3b" x1="0%" y1="0%" x2="100%" y2="100%">
      <stop offset="0%" style="stop-color:#6C5CE7"/>
      <stop offset="100%" style="stop-color:#a29bfe"/>
    </linearGradient>
    <linearGradient id="flameL" x1="0%" y1="100%" x2="50%" y2="0%">
      <stop offset="0%" style="stop-color:#FF6B35"/>
      <stop offset="60%" style="stop-color:#FF8C42"/>
      <stop offset="100%" style="stop-color:#FFD166"/>
    </linearGradient>
    <linearGradient id="flameR" x1="100%" y1="100%" x2="50%" y2="0%">
      <stop offset="0%" style="stop-color:#6C5CE7"/>
      <stop offset="60%" style="stop-color:#7c6ff0"/>
      <stop offset="100%" style="stop-color:#a29bfe"/>
    </linearGradient>
    <clipPath id="sc3b">
      <path d="M300 42 L530 125 L530 340 Q530 540 300 635 Q70 540 70 340 L70 125 Z"/>
    </clipPath>
  </defs>

  <!-- Shield -->
  <path d="M300 30 L540 118 L540 345 Q540 550 300 648 Q60 550 60 345 L60 118 Z" fill="url(#g3b)"/>
  <path d="M300 42 L530 125 L530 340 Q530 540 300 635 Q70 540 70 340 L70 125 Z" fill="#1E1E2E"/>
  <ellipse cx="300" cy="300" rx="200" ry="200" fill="rgba(255,107,53,0.03)" clip-path="url(#sc3b)"/>

  <!-- Deco lines -->
  <line x1="100" y1="175" x2="500" y2="175" stroke="url(#g3b)" stroke-width="1" opacity="0.15"/>
  <line x1="100" y1="455" x2="500" y2="455" stroke="url(#g3b)" stroke-width="1" opacity="0.15"/>

  <!-- LE TOURNOI -->
  <text x="300" y="140" text-anchor="middle" font-family="'Arial Black','Helvetica Neue',sans-serif" font-weight="900" font-size="30" letter-spacing="7" fill="url(#g3b)">LE TOURNOI</text>
  <line x1="155" y1="162" x2="240" y2="162" stroke="url(#g3b)" stroke-width="1.5" opacity="0.4"/>
  <polygon points="300,154 304,163 314,163 306,169 309,178 300,172 291,178 294,169 286,163 296,163" fill="#FFD166"/>
  <line x1="360" y1="162" x2="445" y2="162" stroke="url(#g3b)" stroke-width="1.5" opacity="0.4"/>

  <!-- ═══ LEFT FLAME SILHOUETTE (orange) — abstract player shape ═══ -->
  <g transform="translate(130, 190)">
    <!-- Main flame body — suggests a player in motion -->
    <path d="M65 230
             Q40 220 35 180
             Q30 150 45 120
             Q38 100 42 80
             Q35 55 50 35
             Q55 20 65 5
             Q72 -8 70 -20
             Q80 -5 85 10
             Q95 -10 90 15
             Q100 25 95 45
             Q110 35 105 60
             Q115 80 105 100
             Q115 115 108 135
             Q120 160 110 190
             Q105 215 95 230 Z"
          fill="url(#flameL)" opacity="0.9"/>
    <!-- Inner flame detail -->
    <path d="M65 220
             Q50 200 50 170
             Q48 140 55 115
             Q50 95 58 70
             Q55 50 65 30
             Q72 15 70 5
             Q78 15 80 35
             Q88 20 85 50
             Q92 65 88 85
             Q98 75 95 100
             Q100 120 92 145
             Q100 175 90 200
             Q85 215 80 220 Z"
          fill="#FF8C42" opacity="0.5"/>
    <!-- Padel racket emerging from flame top -->
    <g transform="translate(48, -50) rotate(-20)">
      <!-- Teardrop racket head -->
      <path d="M10 -40 Q10 -60 22 -66 Q34 -70 42 -60 Q48 -52 48 -38 L48 -10 Q48 4 36 8 Q28 10 22 8 Q12 4 10 -10 Z" fill="#FFD166" opacity="0.95"/>
      <path d="M10 -40 Q10 -60 22 -66 Q34 -70 42 -60 Q48 -52 48 -38 L48 -10 Q48 4 36 8 Q28 10 22 8 Q12 4 10 -10 Z" fill="none" stroke="#FF6B35" stroke-width="2.5"/>
      <!-- Perforations -->
      <circle cx="24" cy="-54" r="2.3" fill="#1E1E2E"/>
      <circle cx="34" cy="-54" r="2.3" fill="#1E1E2E"/>
      <circle cx="18" cy="-46" r="2.3" fill="#1E1E2E"/>
      <circle cx="29" cy="-46" r="2.3" fill="#1E1E2E"/>
      <circle cx="40" cy="-46" r="2.3" fill="#1E1E2E"/>
      <circle cx="24" cy="-38" r="2.3" fill="#1E1E2E"/>
      <circle cx="34" cy="-38" r="2.3" fill="#1E1E2E"/>
      <circle cx="16" cy="-36" r="2" fill="#1E1E2E"/>
      <circle cx="42" cy="-36" r="2" fill="#1E1E2E"/>
      <circle cx="29" cy="-28" r="2.3" fill="#1E1E2E"/>
      <circle cx="20" cy="-26" r="2" fill="#1E1E2E"/>
      <circle cx="38" cy="-26" r="2" fill="#1E1E2E"/>
      <circle cx="24" cy="-16" r="2" fill="#1E1E2E"/>
      <circle cx="34" cy="-16" r="2" fill="#1E1E2E"/>
      <circle cx="29" cy="-6" r="1.8" fill="#1E1E2E"/>
      <!-- Bridge -->
      <path d="M20 8 Q20 16 25 19 L25 24" fill="none" stroke="#FF6B35" stroke-width="2"/>
      <path d="M38 8 Q38 16 33 19 L33 24" fill="none" stroke="#FF6B35" stroke-width="2"/>
      <!-- Handle -->
      <rect x="23" y="22" width="12" height="28" rx="4" fill="#FF6B35"/>
      <rect x="22" y="46" width="14" height="7" rx="3" fill="#FFD166"/>
    </g>
  </g>

  <!-- ═══ RIGHT FLAME SILHOUETTE (violet) — mirrored ═══ -->
  <g transform="translate(470, 190) scale(-1,1)">
    <path d="M65 230
             Q40 220 35 180
             Q30 150 45 120
             Q38 100 42 80
             Q35 55 50 35
             Q55 20 65 5
             Q72 -8 70 -20
             Q80 -5 85 10
             Q95 -10 90 15
             Q100 25 95 45
             Q110 35 105 60
             Q115 80 105 100
             Q115 115 108 135
             Q120 160 110 190
             Q105 215 95 230 Z"
          fill="url(#flameR)" opacity="0.9"/>
    <path d="M65 220
             Q50 200 50 170
             Q48 140 55 115
             Q50 95 58 70
             Q55 50 65 30
             Q72 15 70 5
             Q78 15 80 35
             Q88 20 85 50
             Q92 65 88 85
             Q98 75 95 100
             Q100 120 92 145
             Q100 175 90 200
             Q85 215 80 220 Z"
          fill="#7c6ff0" opacity="0.5"/>
    <!-- Racket -->
    <g transform="translate(48, -50) rotate(-20)">
      <path d="M10 -40 Q10 -60 22 -66 Q34 -70 42 -60 Q48 -52 48 -38 L48 -10 Q48 4 36 8 Q28 10 22 8 Q12 4 10 -10 Z" fill="#a29bfe" opacity="0.95"/>
      <path d="M10 -40 Q10 -60 22 -66 Q34 -70 42 -60 Q48 -52 48 -38 L48 -10 Q48 4 36 8 Q28 10 22 8 Q12 4 10 -10 Z" fill="none" stroke="#6C5CE7" stroke-width="2.5"/>
      <circle cx="24" cy="-54" r="2.3" fill="#1E1E2E"/>
      <circle cx="34" cy="-54" r="2.3" fill="#1E1E2E"/>
      <circle cx="18" cy="-46" r="2.3" fill="#1E1E2E"/>
      <circle cx="29" cy="-46" r="2.3" fill="#1E1E2E"/>
      <circle cx="40" cy="-46" r="2.3" fill="#1E1E2E"/>
      <circle cx="24" cy="-38" r="2.3" fill="#1E1E2E"/>
      <circle cx="34" cy="-38" r="2.3" fill="#1E1E2E"/>
      <circle cx="16" cy="-36" r="2" fill="#1E1E2E"/>
      <circle cx="42" cy="-36" r="2" fill="#1E1E2E"/>
      <circle cx="29" cy="-28" r="2.3" fill="#1E1E2E"/>
      <circle cx="20" cy="-26" r="2" fill="#1E1E2E"/>
      <circle cx="38" cy="-26" r="2" fill="#1E1E2E"/>
      <circle cx="24" cy="-16" r="2" fill="#1E1E2E"/>
      <circle cx="34" cy="-16" r="2" fill="#1E1E2E"/>
      <circle cx="29" cy="-6" r="1.8" fill="#1E1E2E"/>
      <path d="M20 8 Q20 16 25 19 L25 24" fill="none" stroke="#6C5CE7" stroke-width="2"/>
      <path d="M38 8 Q38 16 33 19 L33 24" fill="none" stroke="#6C5CE7" stroke-width="2"/>
      <rect x="23" y="22" width="12" height="28" rx="4" fill="#6C5CE7"/>
      <rect x="22" y="46" width="14" height="7" rx="3" fill="#a29bfe"/>
    </g>
  </g>

  <!-- Ball center between flames -->
  <circle cx="300" cy="310" r="14" fill="url(#g3b)"/>
  <path d="M292 298 Q300 310 292 322" fill="none" stroke="#1E1E2E" stroke-width="1.5" opacity="0.4"/>
  <path d="M308 298 Q300 310 308 322" fill="none" stroke="#1E1E2E" stroke-width="1.5" opacity="0.4"/>
  <!-- Glow around ball -->
  <circle cx="300" cy="310" r="22" fill="none" stroke="#FFD166" stroke-width="1" opacity="0.15"/>
  <circle cx="300" cy="310" r="30" fill="none" stroke="#FFD166" stroke-width="0.5" opacity="0.08"/>

  <!-- DES -->
  <text x="300" y="462" text-anchor="middle" font-family="'Arial',sans-serif" font-weight="700" font-size="17" letter-spacing="10" fill="rgba(255,255,255,0.35)">DES</text>
  <!-- FRÉROTS -->
  <text x="300" y="510" text-anchor="middle" font-family="'Arial Black','Helvetica Neue',sans-serif" font-weight="900" font-size="58" letter-spacing="4" fill="#FFFFFF">FRÉROTS</text>
  <!-- PADEL CLUB -->
  <text x="300" y="548" text-anchor="middle" font-family="'Arial','Helvetica Neue',sans-serif" font-weight="700" font-size="16" letter-spacing="8" fill="#6C5CE7">PADEL CLUB</text>
  <!-- Stars -->
  <polygon points="245,572 248,579 256,579 250,583 252,590 245,586 238,590 240,583 234,579 242,579" fill="#FFD166" opacity="0.5"/>
  <polygon points="300,577 304,586 314,586 306,591 309,600 300,595 291,600 294,591 286,586 296,586" fill="#FFD166"/>
  <polygon points="355,572 358,579 366,579 360,583 362,590 355,586 348,590 350,583 344,579 352,579" fill="#FFD166" opacity="0.5"/>
  <text x="300" y="618" text-anchor="middle" font-family="'Arial',sans-serif" font-weight="700" font-size="12" letter-spacing="5" fill="rgba(255,255,255,0.2)">EST. 2026</text>
</svg>
